<?xml version="1.0" encoding="utf-8"?>
<!-- Generator: Adobe Illustrator 22.1.0, SVG Export Plug-In . SVG Version: 6.00 Build 0)  -->
<svg version="1.1" id="Layer_2" xmlns="http://www.w3.org/2000/svg" xmlns:xlink="http://www.w3.org/1999/xlink" x="0px" y="0px"
	 viewBox="0 0 174 79.3" style="enable-background:new 0 0 174 79.3;" xml:space="preserve">
<style type="text/css">
	.st0{fill:#FFFFFF;}
	.st1{fill:#0093D0;}
	.st2{fill:#0055A4;}
</style>
<circle class="st0" cx="45.2" cy="40.8" r="34.3"/>
<g>
	<path class="st1" d="M67.3,29.4c0,0-0.2,0.4-0.2,0.6c-2.1,4.2-11.6,14.7-16.8,15.4c0.9,0.6,2.9,0.2,3.9,0.2c0.6,0,2.1,0.1,2.3,1.1
		c-1.8-0.2-8,1.7-9.3,2.5c-1.4,0.8-7,4.5-10.4,1.3c1.6-0.1,6.7-1.8,7.4-3c-2.4,0.5-10-1.5-13.6-5c-3.6-3.6-6.6-7.6-9.4-8.7
		c-0.6,2.2-1,4.5-1,7c0,13.8,11.1,25,24.9,25c13.7,0,24.9-11.2,24.9-25c0-3.3-0.6-6.4-1.7-9.2c-0.2-0.6-0.5-1.2-0.8-1.8
		C67.5,29.6,67.4,29.5,67.3,29.4z"/>
	<path class="st0" d="M30.6,42.5c3.6,3.6,11.2,5.5,13.6,5c-0.7,1.2-5.8,2.9-7.4,3c3.4,3.2,9.1-0.5,10.4-1.3c1.4-0.8,7.6-2.7,9.3-2.5
		c-0.2-1-1.7-1.1-2.3-1.1c-1,0-3,0.5-3.9-0.2c5.1-0.8,14.6-11.2,16.8-15.4c0.1-0.1,0.2-0.5,0.2-0.6c-0.7-1.3-1.5-2.6-2.4-3.5
		c-3.7-0.1-6.2,4.8-6.2,4.8c-0.6,0.9-4.1,7.7-4.1,7.7c-7.5,15.7-17.6,1.7-20.6-2.5c-1.9-2.7-6.3-9-9.1-9.6c-1.6,2.2-2.9,4.7-3.7,7.4
		C24,34.8,27.1,38.9,30.6,42.5z"/>
	<path class="st2" d="M34,35.9c3,4.2,13.1,18.3,20.6,2.5c0,0,3.5-6.9,4.1-7.7c0,0,2.5-4.9,6.2-4.8c0,0-0.9-1.4-2-2.5
		c-4.6-4.6-10.8-7.5-17.7-7.5c-7.9,0-15,3.7-19.6,9.6c-0.2,0.3-0.4,0.6-0.6,0.8C27.7,26.9,32.1,33.3,34,35.9z"/>
	<g>
		<g>
			<path class="st0" d="M37.9,32.3h1.3v-5.1c0-0.7-0.6-1.2-1.5-1.2H35v6.4h1.3v-5.1h1.2c0.3,0,0.4,0.2,0.4,0.5c0,0.3,0,0,0,0V32.3z"
				/>
			<path class="st0" d="M45.3,32.3v-5.1c0-0.8,0.9-1.2,1.3-1.2h1.6c0.6,0,1.3,0.4,1.3,1.2v5.1h-1.3v-2.4h-1.6v2.4H45.3z M48.1,27.6
				c0,0,0-0.5-0.5-0.5H47c-0.2,0-0.4,0.2-0.4,0.5v1h1.6V27.6z"/>
			<path class="st0" d="M50.4,32.3v-5.1c0-0.8,0.9-1.2,1.3-1.2h1.6c0.6,0,1.3,0.4,1.3,1.2v5.1h-1.3v-2.4h-1.6v2.4H50.4z M53.3,27.6
				c0,0,0-0.5-0.5-0.5h-0.7c-0.2,0-0.4,0.2-0.4,0.5v1h1.6V27.6z"/>
		</g>
		<path class="st0" d="M43,25.9h-1.6c-0.4,0-1.3,0.3-1.3,1.2v0.5v3.5c0,0.6,0.8,1.2,1.3,1.2H43c0.6,0,1.3-0.7,1.3-1.2v-4
			C44.3,26.4,43.6,25.9,43,25.9z M43,30.6c0,0.2-0.2,0.4-0.4,0.4h-0.7c-0.2,0-0.4-0.2-0.4-0.4v-3.1c0-0.2,0.2-0.4,0.4-0.4h0.7
			c0.2,0,0.4,0.2,0.4,0.4V30.6z"/>
	</g>
</g>
<path class="st0" d="M45.2,40.8"/>
<path class="st0" d="M45.2,40.8"/>
<path class="st0" d="M45.2,40.8"/>
<path d="M45.2,40.8"/>
<path d="M45.2,40.8"/>
<path d="M45.2,40.8"/>
<g>
	<g>
		<path class="st2" d="M16.7,46.9l-0.1-0.3l2.5-0.6l0.1,0.4l-1.7,1.7l0,0l2-0.5l0.1,0.3l-2.5,0.6L17,48.2l1.7-1.7l0,0L16.7,46.9z"/>
		<path class="st2" d="M18.2,45.2l0.8,0.2l0,0.3l-2.6-0.6l-0.1-0.4l2.4-1.3l0,0.4l-0.7,0.4L18.2,45.2z M17.8,44.4l-1.1,0.5l0,0
			l1.2,0.3L17.8,44.4z"/>
		<path class="st2" d="M16.2,43.5l-0.1-2.1l0.3,0l0,0.9l2.2-0.1l0,0.3l-2.2,0.1l0,0.9L16.2,43.5z"/>
		<path class="st2" d="M18.6,40.7v0.3h-2.5v-0.3H18.6z"/>
		<path class="st2" d="M17.5,38.1c0.6,0,1,0.4,1,1c0,0.6-0.5,0.9-1.1,0.8c-0.6,0-1-0.4-1-1C16.4,38.4,16.9,38.1,17.5,38.1z
			 M17.5,37.8c-0.5,0-1.3,0.2-1.4,1.1c-0.1,1,0.7,1.3,1.2,1.3c0.5,0,1.4-0.2,1.4-1.1C18.8,38.2,18,37.8,17.5,37.8z"/>
		<path class="st2" d="M16.6,35.4l0.1-0.3l2.5,0.4l-0.1,0.4l-2.2,0.9v0l2,0.3l-0.1,0.3l-2.5-0.4l0.1-0.4l2.2-0.9v0L16.6,35.4z"/>
		<path class="st2" d="M18.4,34.3l-1-0.7l0,0l1.2-0.1L18.4,34.3z M18.9,33.5l0.8-0.1l0.1-0.4l-2.7,0.2L17,33.7l2.2,1.6l0.1-0.3
			l-0.6-0.4L18.9,33.5z"/>
		<path class="st2" d="M19.7,32.4l0.4-1.2l0.3,0.1l-0.5,1.5L17.5,32l0.1-0.3L19.7,32.4z"/>
		<path class="st2" d="M20.6,27.8c0.5,0.3,0.8,0.8,0.5,1.3c-0.2,0.5-0.8,0.6-1.3,0.3c-0.5-0.3-0.8-0.8-0.5-1.3
			C19.5,27.6,20.1,27.5,20.6,27.8z M20.8,27.4c-0.5-0.2-1.3-0.3-1.7,0.5c-0.4,0.9,0.2,1.5,0.6,1.7c0.5,0.2,1.3,0.3,1.7-0.5
			C21.8,28.3,21.3,27.7,20.8,27.4z"/>
		<path class="st2" d="M21.5,25.2c-0.4-0.2-0.7,0.1-0.8,0.3c-0.2,0.4-0.2,0.9,0.4,1.2c0.5,0.3,1,0.4,1.3-0.2c0.1-0.2,0.2-0.6-0.2-1
			l0.2-0.3c0.7,0.6,0.4,1.3,0.3,1.5c-0.3,0.5-0.9,0.8-1.7,0.3c-0.7-0.4-0.9-1.1-0.5-1.7c0.3-0.6,0.9-0.6,1.3-0.4L21.5,25.2z"/>
		<path class="st2" d="M24.6,24l-1.1,1.5l-2-1.5l1.1-1.5l0.2,0.2l-0.9,1.2l0.6,0.5l0.8-1.1l0.2,0.2l-0.8,1.1l0.7,0.5l0.9-1.2
			L24.6,24z"/>
		<path class="st2" d="M24.4,22.6l-0.6-1.1l0,0l1.1,0.5L24.4,22.6z M25.3,22.2l0.7,0.3l0.3-0.3l-2.5-1l-0.3,0.3l1.2,2.4l0.2-0.3
			l-0.4-0.7L25.3,22.2z"/>
		<path class="st2" d="M25.9,19l0.2-0.2l1.7,1.9l-0.3,0.3l-2.3-0.6l0,0l1.4,1.5L26.4,22l-1.7-1.9l0.3-0.3l2.3,0.6l0,0L25.9,19z"/>
		<path class="st2" d="M27,18.1l-0.3,0.2l1.6,2l0.3-0.2L27,18.1z"/>
		<path class="st2" d="M29.5,17.2c-0.3-0.3-0.7-0.2-0.9,0c-0.4,0.3-0.5,0.8-0.1,1.3c0.3,0.5,0.8,0.7,1.3,0.4c0.2-0.1,0.4-0.4,0.2-1
			l0.3-0.2c0.4,0.9-0.2,1.4-0.3,1.5c-0.5,0.3-1.1,0.4-1.7-0.4c-0.5-0.6-0.4-1.3,0.2-1.8c0.5-0.4,1-0.2,1.3,0.1L29.5,17.2z"/>
		<path class="st2" d="M31.9,16.6l-0.2-1.2l0,0l0.9,0.8L31.9,16.6z M32.8,16.5l0.6,0.5l0.3-0.2l-2-1.8l-0.3,0.2l0.3,2.7l0.3-0.2
			l-0.1-0.8L32.8,16.5z"/>
		<path class="st2" d="M34.5,13.7l0.3-0.1l1,2.3l-0.4,0.2l-2-1.4l0,0l0.8,1.9L34,16.7l-1-2.3l0.4-0.2l2,1.4l0,0L34.5,13.7z"/>
		<path class="st2" d="M36,13.5l0.6-0.2c0.4-0.1,0.8,0.1,1,0.7c0.2,0.6,0,1-0.4,1.2l-0.6,0.2L36,13.5z M36.3,15.7l1-0.3
			c0.8-0.2,0.8-1,0.6-1.6c-0.2-0.7-0.8-1.1-1.4-0.9l-1,0.3L36.3,15.7z"/>
		<path class="st2" d="M40,13.7l0.2-1.2l0,0l0.6,1L40,13.7z M40.9,13.8l0.4,0.7l0.4-0.1l-1.3-2.4l-0.4,0.1l-0.5,2.7l0.3-0.1l0.1-0.8
			L40.9,13.8z"/>
		<path class="st2" d="M41.5,11.9l2-0.2l0,0.3l-0.9,0.1l0.2,2.2l-0.3,0l-0.2-2.2l-0.9,0.1L41.5,11.9z"/>
		<path class="st2" d="M46.1,14.2v-1.5c0-0.1,0-0.4,0-0.6h0l-0.7,2.1H45l-0.7-2.1h0c0,0.2,0,0.6,0,0.6v1.5H44v-2.5h0.5l0.7,2.2h0
			l0.7-2.2h0.5v2.5H46.1z"/>
		<path class="st2" d="M48.9,13.2c-0.1,0.6-0.4,1-1,0.9c-0.5-0.1-0.8-0.5-0.8-1.1c0.1-0.6,0.4-1,1-0.9C48.7,12.1,49,12.6,48.9,13.2z
			 M49.3,13.2c0.1-0.5-0.2-1.4-1.1-1.5c-0.9-0.1-1.3,0.7-1.4,1.2c-0.1,0.5,0.2,1.4,1.1,1.5C48.9,14.5,49.2,13.8,49.3,13.2z"/>
		<path class="st2" d="M51.4,13.1c0.1-0.4-0.2-0.6-0.5-0.6c-0.2,0-0.6-0.1-0.7,0.3c0,0.2,0.1,0.3,0.2,0.4l0.7,0.3
			c0.3,0.1,0.5,0.4,0.4,0.8c-0.1,0.6-0.7,0.6-1.1,0.6c-0.5-0.1-0.6-0.3-0.7-0.4c-0.2-0.2-0.2-0.5-0.1-0.7l0.3,0.1
			c-0.1,0.5,0.2,0.7,0.6,0.7c0.2,0,0.7,0.1,0.7-0.3c0.1-0.3-0.1-0.4-0.4-0.5l-0.5-0.2c-0.2-0.1-0.5-0.3-0.4-0.7
			c0.1-0.4,0.4-0.7,1-0.6c0.9,0.2,0.9,0.7,0.8,1L51.4,13.1z"/>
		<path class="st2" d="M52.8,13l0.7,0.2c0.3,0.1,0.5,0.2,0.4,0.5c-0.1,0.3-0.3,0.4-0.6,0.3l-0.7-0.2L52.8,13z M52.4,14.1l0.8,0.2
			c0.5,0.2,0.8-0.2,0.9-0.5c0.1-0.4-0.1-0.8-0.5-0.9l-1.1-0.3l-0.7,2.4l0.3,0.1L52.4,14.1z"/>
		<path class="st2" d="M56.5,14l0.3,0.1l-0.9,2.4l-0.3-0.1l0.4-1.1l-1.2-0.5l-0.4,1.1L54,15.7l0.9-2.4l0.3,0.1l-0.4,1l1.2,0.5
			L56.5,14z"/>
		<path class="st2" d="M58,17.5l-1.7-0.8l1.1-2.3l1.7,0.8L59,15.5l-1.3-0.7l-0.4,0.7l1.2,0.6l-0.1,0.3l-1.2-0.6l-0.4,0.8l1.4,0.7
			L58,17.5z"/>
		<path class="st2" d="M59.9,16l0.7,0.5c0.1,0.1,0.4,0.3,0.2,0.6c-0.2,0.3-0.5,0.2-0.7,0.1l-0.7-0.4L59.9,16z M59.3,17l0.7,0.4
			c0.4,0.2,0.3,0.4,0.1,0.6c-0.1,0.1-0.2,0.4-0.3,0.6l0.4,0.2l0,0c-0.1-0.1,0-0.2,0-0.3l0.2-0.4c0.2-0.3,0.1-0.4,0-0.6
			c0.2,0,0.4,0,0.6-0.3c0.3-0.5,0-0.8-0.3-1l-1-0.6l-1.3,2.2l0.3,0.2L59.3,17z"/>
		<path class="st2" d="M60.8,19.3l-0.3-0.2l1.5-2.1l0.3,0.2L60.8,19.3z"/>
		<path class="st2" d="M63.7,19.4c0.2-0.4,0-0.7-0.2-0.9c-0.4-0.3-0.9-0.3-1.3,0.3c-0.4,0.5-0.5,1,0,1.4c0.2,0.1,0.5,0.3,1-0.1
			l0.3,0.2c-0.7,0.7-1.3,0.2-1.5,0.1c-0.4-0.4-0.6-1,0-1.8c0.5-0.6,1.2-0.7,1.8-0.3c0.5,0.4,0.5,1,0.3,1.3L63.7,19.4z"/>
		<path class="st2" d="M64.9,21.6l1.1-0.5l0,0l-0.6,1L64.9,21.6z M65.3,22.5L65,23.2l0.3,0.3l1.2-2.4l-0.3-0.3l-2.5,1.1l0.2,0.3
			l0.7-0.3L65.3,22.5z"/>
		<path class="st2" d="M67.4,22.5l0.4,0.5c0.3,0.4,0.2,0.8-0.3,1.2c-0.5,0.4-1,0.4-1.2,0l-0.4-0.5L67.4,22.5z M65.4,23.7l0.6,0.8
			c0.5,0.7,1.2,0.4,1.7,0c0.6-0.5,0.7-1.1,0.3-1.6l-0.6-0.8L65.4,23.7z"/>
		<path class="st2" d="M68.1,27.4l1.3-0.8c0.1,0,0.3-0.2,0.5-0.3l0,0l-2.2,0.5l-0.2-0.3l1.4-1.7l0,0c-0.2,0.1-0.5,0.3-0.5,0.3
			l-1.3,0.8L67,25.6l2.1-1.4l0.3,0.4l-1.4,1.8l0,0l2.2-0.5l0.3,0.4l-2.1,1.4L68.1,27.4z"/>
		<path class="st2" d="M68.7,28.5l-0.2-0.3l2.2-1.2l0.2,0.3L68.7,28.5z"/>
		<path class="st2" d="M71.9,29.5l0.1,0.3l-2.3,1.1l-0.2-0.4l1.3-2l0,0l-1.9,0.9L68.9,29l2.3-1.1l0.2,0.4l-1.3,2l0,0L71.9,29.5z"/>
		<path class="st2" d="M70.1,31.7L70,31.3l2.4-0.9l0.1,0.3L70.1,31.7z"/>
		<path class="st2" d="M72.4,33.1c0.4-0.1,0.4-0.5,0.3-0.8c-0.1-0.2-0.2-0.5-0.6-0.4c-0.2,0.1-0.2,0.2-0.2,0.4l0.1,0.7
			c0,0.3-0.1,0.6-0.5,0.8c-0.6,0.2-0.9-0.3-1-0.7c-0.1-0.4-0.1-0.7,0-0.8c0.1-0.3,0.3-0.4,0.5-0.4l0.1,0.3c-0.4,0.1-0.5,0.5-0.4,0.8
			c0.1,0.2,0.3,0.6,0.6,0.5c0.3-0.1,0.3-0.2,0.3-0.7l0-0.5c0-0.2,0-0.6,0.4-0.7c0.4-0.1,0.8,0,1,0.6c0.3,0.9-0.2,1.1-0.5,1.2
			L72.4,33.1z"/>
		<path class="st2" d="M73.4,33.7l0.4,2l-0.3,0.1l-0.2-0.8l-2.2,0.5l-0.1-0.3l2.2-0.5l-0.2-0.8L73.4,33.7z"/>
		<path class="st2" d="M73.6,36.6l0.1,0.8c0,0.2,0,0.5-0.4,0.5c-0.4,0-0.5-0.2-0.5-0.5l-0.1-0.8L73.6,36.6z M72.5,36.8l0.1,0.8
			c0.1,0.4-0.2,0.5-0.4,0.5c-0.1,0-0.5,0.1-0.6,0.1l0.1,0.4l0.1,0c0-0.1,0.1-0.1,0.2-0.2l0.5-0.1c0.4-0.1,0.4-0.2,0.4-0.4
			c0.1,0.2,0.3,0.3,0.6,0.3c0.5-0.1,0.6-0.5,0.6-0.9l-0.1-1.2l-2.5,0.3l0,0.3L72.5,36.8z"/>
		<path class="st2" d="M72.4,39.4l-0.7-0.2l0-0.4l2.6,0.9l0,0.4l-2.5,1l0-0.4l0.7-0.3L72.4,39.4z M72.8,40.3l1.1-0.4v0l-1.1-0.4
			L72.8,40.3z"/>
		<path class="st2" d="M74.3,41.3l-0.1,2.1l-0.3,0l0-0.9l-2.2-0.1l0-0.3l2.2,0.1l0-0.9L74.3,41.3z"/>
		<path class="st2" d="M71.6,43.9l0-0.3l2.5,0.3l0,0.3L71.6,43.9z"/>
		<path class="st2" d="M72.4,46.6c-0.6-0.1-1-0.5-0.9-1.1c0.1-0.5,0.6-0.8,1.2-0.7c0.6,0.1,1,0.5,0.9,1.1
			C73.5,46.5,73,46.7,72.4,46.6z M72.4,47c0.5,0.1,1.4-0.1,1.5-1c0.2-0.9-0.6-1.4-1.1-1.5c-0.5-0.1-1.4,0.1-1.5,1
			C71.1,46.4,71.8,46.9,72.4,47z"/>
		<path class="st2" d="M73,49.4l-0.1,0.3L70.5,49l0.1-0.4l2.3-0.7l0,0l-2-0.6l0.1-0.3l2.4,0.7l-0.1,0.4L71,48.8v0L73,49.4z"/>
		<path class="st2" d="M45.2,40.9"/>
	</g>
	<g>
		<path class="st2" d="M22.2,54.2l-1.4,0.8c-0.5,0.2-1,0.2-1.3-0.4c-0.3-0.6-0.1-1.1,0.3-1.3l1.5-0.8l0.2,0.3l-1.4,0.8
			c-0.5,0.3-0.5,0.6-0.3,0.9c0.1,0.3,0.4,0.5,0.9,0.3l1.4-0.8L22.2,54.2z"/>
		<path class="st2" d="M20.6,56.3L20.4,56l0.3-0.2l0.2,0.3L20.6,56.3z"/>
		<path class="st2" d="M23.3,57.1c0.3-0.2,0.2-0.6,0.1-0.8c-0.1-0.2-0.4-0.4-0.7-0.2c-0.2,0.1-0.1,0.3-0.1,0.4l0.3,0.7
			c0.1,0.3,0.1,0.6-0.2,0.9c-0.5,0.3-0.9,0-1.2-0.4c-0.3-0.4-0.3-0.6-0.2-0.8c0-0.3,0.2-0.4,0.4-0.6l0.2,0.3
			c-0.4,0.3-0.3,0.7-0.1,0.9c0.1,0.2,0.4,0.5,0.7,0.3c0.2-0.2,0.2-0.3,0-0.7l-0.2-0.5c-0.1-0.2-0.2-0.5,0.2-0.8
			c0.3-0.2,0.8-0.2,1.1,0.3c0.5,0.7,0.1,1.1-0.1,1.3L23.3,57.1z"/>
		<path class="st2" d="M22.7,59.2l-0.2-0.3l0.3-0.2L23,59L22.7,59.2z"/>
		<path class="st2" d="M25.7,59.2l0.4,0.5c0.3,0.3,0.3,0.8-0.1,1.2c-0.5,0.5-0.9,0.5-1.2,0.2l-0.5-0.5L25.7,59.2z M23.8,60.5
			l0.7,0.7c0.6,0.6,1.3,0.2,1.7-0.2c0.5-0.5,0.6-1.2,0.1-1.6l-0.7-0.7L23.8,60.5z"/>
		<path class="st2" d="M27.2,63.7l-1.4-1.2l1.6-2l1.4,1.2l-0.2,0.2l-1.2-1L27,61.6l1.1,0.9l-0.2,0.2l-1.1-0.9l-0.5,0.7l1.2,1
			L27.2,63.7z"/>
		<path class="st2" d="M29.4,62.4l0.6,0.4c0.2,0.2,0.4,0.4,0.2,0.6c-0.2,0.3-0.4,0.3-0.7,0.1l-0.6-0.4L29.4,62.4z M28.7,63.4
			l0.7,0.5c0.5,0.3,0.8,0.1,1-0.2c0.2-0.3,0.2-0.7-0.2-1L29.2,62l-1.5,2.1l0.3,0.2L28.7,63.4z"/>
		<path class="st2" d="M30.8,64.9l0.9-0.8l0,0l-0.2,1.2L30.8,64.9z M31.5,65.6l-0.2,0.8l0.3,0.2l0.5-2.7l-0.3-0.2l-2.1,1.7l0.3,0.2
			l0.6-0.5L31.5,65.6z"/>
		<path class="st2" d="M32.4,66.9l-0.3-0.1l1.1-2.3l1.1,0.5c0.4,0.2,0.7,0.5,0.5,1c-0.2,0.3-0.4,0.4-0.6,0.4
			c0.1,0.1,0.2,0.2,0.1,0.6l-0.2,0.4c-0.1,0.1-0.1,0.2,0,0.3l0,0.1l-0.4-0.2c0-0.2,0.2-0.5,0.2-0.6c0.1-0.2,0.2-0.4-0.2-0.6
			l-0.8-0.3L32.4,66.9z M33,65.7l0.7,0.3c0.2,0.1,0.5,0.2,0.7-0.2c0.2-0.4-0.1-0.5-0.2-0.6l-0.8-0.4L33,65.7z"/>
		<path class="st2" d="M35.3,65.4l1.9,0.7l-0.1,0.3l-0.8-0.3l-0.8,2.1l-0.3-0.1L36,66l-0.8-0.3L35.3,65.4z"/>
		<path class="st2" d="M38.9,69.2l0.4-1.5c0-0.1,0.1-0.4,0.2-0.6l0,0L38.2,69l-0.3-0.1l-0.2-2.2l0,0c-0.1,0.2-0.1,0.5-0.1,0.6
			l-0.4,1.5l-0.3-0.1l0.6-2.5l0.5,0.1l0.2,2.3l0,0l1.2-1.9l0.5,0.1l-0.6,2.5L38.9,69.2z"/>
		<path class="st2" d="M41.8,69.7L40,69.4l0.4-2.5l1.8,0.3l0,0.3l-1.5-0.2L40.5,68l1.4,0.2l0,0.3l-1.4-0.2l-0.1,0.8l1.5,0.2
			L41.8,69.7z"/>
		<path class="st2" d="M44.3,67.3l0.3,0l-0.1,2.5l-0.4,0L43,67.7l0,0l-0.1,2.1l-0.3,0l0.1-2.5l0.4,0l1.1,2.1h0L44.3,67.3z"/>
		<path class="st2" d="M44.9,67.3l2.1-0.1l0,0.3l-0.9,0l0.1,2.2l-0.3,0l-0.1-2.2l-0.9,0L44.9,67.3z"/>
		<path class="st2" d="M50.3,68.1c0.1,0.6-0.2,1.1-0.7,1.2c-0.5,0.1-0.9-0.3-1-0.9c-0.1-0.6,0.2-1.1,0.7-1.2
			C49.8,67.2,50.2,67.5,50.3,68.1z M50.7,68.1c-0.1-0.5-0.5-1.3-1.4-1.1c-0.9,0.1-1.1,1-1,1.5c0.1,0.5,0.5,1.3,1.4,1.1
			C50.6,69.5,50.8,68.6,50.7,68.1z"/>
		<path class="st2" d="M51.8,69.1l-0.3,0.1l-0.6-2.5l1.7-0.4l0.1,0.3l-1.4,0.3l0.2,0.8l1.2-0.3l0.1,0.3L51.5,68L51.8,69.1z"/>
		<path class="st2" d="M55.7,66c-0.2-0.4-0.6-0.3-0.9-0.2c-0.4,0.2-0.7,0.6-0.4,1.2c0.2,0.6,0.6,0.9,1.2,0.7
			c0.2-0.1,0.5-0.3,0.4-0.9l0.3-0.1c0.2,0.9-0.5,1.3-0.7,1.3c-0.5,0.2-1.2,0.1-1.5-0.9c-0.3-0.7-0.1-1.4,0.6-1.7
			c0.6-0.2,1.1,0,1.3,0.4L55.7,66z"/>
		<path class="st2" d="M58.5,65.2c0.3,0.5,0.2,1.1-0.3,1.3c-0.5,0.2-1,0-1.3-0.5c-0.3-0.5-0.2-1.1,0.3-1.3
			C57.7,64.5,58.2,64.7,58.5,65.2z M58.8,65.1c-0.2-0.5-0.9-1.1-1.7-0.6c-0.8,0.4-0.7,1.3-0.5,1.8c0.2,0.5,0.9,1.1,1.7,0.6
			C59.1,66.4,59,65.6,58.8,65.1z"/>
		<path class="st2" d="M61.7,64.8l-0.8-1.3c0-0.1-0.2-0.3-0.3-0.5l0,0l0.6,2.2l-0.3,0.2L59,63.9l0,0c0.1,0.2,0.3,0.5,0.3,0.5
			l0.8,1.3l-0.3,0.2l-1.4-2.1l0.4-0.3l1.8,1.4l0,0l-0.5-2.2l0.4-0.3l1.4,2.1L61.7,64.8z"/>
		<path class="st2" d="M64.2,62.8l-0.9-1.2c0-0.1-0.2-0.3-0.4-0.5l0,0l0.8,2.1l-0.3,0.2l-1.9-1.2l0,0c0.1,0.2,0.4,0.4,0.4,0.5
			l0.9,1.2l-0.3,0.2l-1.6-2l0.4-0.3l1.9,1.2l0,0l-0.8-2.1l0.4-0.3l1.6,2L64.2,62.8z"/>
		<path class="st2" d="M66.3,60.8L65,62.1l-1.8-1.8l1.3-1.3l0.2,0.2l-1.1,1.1l0.5,0.6l1-1l0.2,0.2l-1,1l0.6,0.6l1.1-1.1L66.3,60.8z"
			/>
		<path class="st2" d="M65.3,58.5l0.6-0.7c0.1-0.1,0.3-0.3,0.6-0.1c0.3,0.2,0.2,0.5,0,0.7L66,59.1L65.3,58.5z M66.2,59.3l0.5-0.6
			c0.3-0.3,0.5-0.2,0.6-0.1c0.1,0.1,0.4,0.3,0.5,0.4l0.3-0.3l0,0c-0.1,0-0.2,0-0.3-0.1l-0.4-0.3c-0.3-0.2-0.4-0.1-0.6-0.1
			c0-0.2,0-0.4-0.2-0.7c-0.4-0.3-0.8-0.1-1.1,0.2l-0.8,0.9l1.9,1.6L67,60L66.2,59.3z"/>
		<path class="st2" d="M68.1,55.7c-0.4-0.2-0.7,0.1-0.8,0.3c-0.3,0.4-0.2,0.9,0.4,1.3c0.5,0.3,1,0.4,1.3-0.1c0.1-0.2,0.3-0.6-0.2-1
			l0.2-0.3c0.7,0.7,0.3,1.3,0.2,1.5c-0.3,0.5-1,0.7-1.8,0.2c-0.6-0.4-0.8-1.1-0.4-1.7c0.4-0.5,0.9-0.6,1.3-0.4L68.1,55.7z"/>
		<path class="st2" d="M71,54.2l-0.9,1.6l-2.2-1.3l0.9-1.6l0.3,0.1l-0.7,1.3l0.7,0.4l0.7-1.2l0.3,0.2L69.3,55l0.7,0.4l0.8-1.3
			L71,54.2z"/>
		<path class="st2" d="M45.2,40.6"/>
	</g>
</g>
<g>
	<g>
		<polygon class="st2" points="88.4,21.7 92.7,28.7 97.1,35.7 97.1,35.7 97.1,35.7 97.1,28.7 97.1,21.7 99.3,21.7 101.4,21.7 
			101.4,32.1 101.4,42.5 99.1,42.5 96.8,42.5 92.5,35.6 88.2,28.6 88.1,28.6 88.1,28.6 88.1,35.6 88.1,42.5 85.9,42.5 83.8,42.5 
			83.8,32.1 83.8,21.7 86.1,21.7 		"/>
		<path class="st2" d="M103.4,27.9c0.5-1.3,1.1-2.5,2-3.5c0.9-1,2-1.8,3.2-2.3c1.3-0.6,2.7-0.8,4.3-0.8c1.6,0,3.1,0.3,4.3,0.8
			c1.3,0.6,2.3,1.3,3.2,2.3c0.9,1,1.5,2.2,2,3.5c0.5,1.3,0.7,2.8,0.7,4.3c0,1.5-0.2,2.9-0.7,4.3c-0.5,1.3-1.1,2.5-2,3.4
			c-0.9,1-1.9,1.7-3.2,2.3c-1.3,0.6-2.7,0.8-4.3,0.8c-1.6,0-3-0.3-4.3-0.8c-1.3-0.6-2.4-1.3-3.2-2.3c-0.9-1-1.5-2.1-2-3.4
			c-0.5-1.3-0.7-2.7-0.7-4.3C102.7,30.6,102.9,29.2,103.4,27.9 M107.6,34.8c0.2,0.8,0.5,1.6,1,2.2c0.4,0.7,1,1.2,1.8,1.6
			c0.7,0.4,1.6,0.6,2.6,0.6c1,0,1.9-0.2,2.6-0.6c0.7-0.4,1.3-0.9,1.8-1.6c0.4-0.7,0.8-1.4,1-2.2c0.2-0.8,0.3-1.7,0.3-2.6
			c0-0.9-0.1-1.8-0.3-2.7c-0.2-0.9-0.5-1.6-1-2.3c-0.4-0.7-1-1.2-1.8-1.6c-0.7-0.4-1.6-0.6-2.6-0.6c-1,0-1.9,0.2-2.6,0.6
			c-0.7,0.4-1.3,0.9-1.8,1.6c-0.4,0.7-0.8,1.4-1,2.3c-0.2,0.9-0.3,1.7-0.3,2.7C107.3,33.1,107.4,33.9,107.6,34.8"/>
		<path class="st2" d="M134.2,21.7l3.9,10.4l3.9,10.4h-2.4h-2.4l-0.8-2.3l-0.8-2.3h-3.9h-3.9l-0.8,2.3l-0.8,2.3H124h-2.3l3.9-10.4
			l3.9-10.4h2.4H134.2z M134.5,34.5l-1.3-3.8l-1.3-3.8h0h0l-1.4,3.8l-1.4,3.8h2.7H134.5z"/>
		<path class="st2" d="M154.1,21.7l3.9,10.4l3.9,10.4h-2.4h-2.4l-0.8-2.3l-0.8-2.3h-3.9h-3.9l-0.8,2.3l-0.8,2.3h-2.3h-2.3l3.9-10.4
			l3.9-10.4h2.4H154.1z M154.4,34.5l-1.3-3.8l-1.3-3.8h0h0l-1.4,3.8l-1.4,3.8h2.7H154.4z"/>
	</g>
	<polygon class="st1" points="83.8,45.9 87.8,45.9 91.7,45.9 91.7,47.1 91.7,48.2 89.2,48.2 86.7,48.2 86.7,49.9 86.7,51.6 
		89.1,51.6 91.4,51.6 91.4,52.8 91.4,53.9 89.1,53.9 86.7,53.9 86.7,57 86.7,60.1 85.2,60.1 83.8,60.1 83.8,53 	"/>
	<polygon class="st1" points="92.9,45.9 94.3,45.9 95.7,45.9 95.7,53 95.7,60.1 94.3,60.1 92.9,60.1 92.9,53 	"/>
	<path class="st1" d="M99.8,55.7v0.4c0,1.3,0.4,2.2,1.9,2.2c0.9,0,1.7-0.6,1.7-1.8c0-1.3-0.6-1.8-2.5-2.4c-2.5-0.9-3.7-2-3.7-4.3
		c0-2.8,1.7-4.2,4.4-4.2c2.5,0,4.4,1.1,4.4,3.8v0.4h-2.7c0-1.4-0.4-2.1-1.6-2.1c-1.3,0-1.6,0.8-1.6,1.7c0,0.9,0.3,1.4,1.5,1.9l2.2,1
		c2.2,1,2.7,2,2.7,3.8c0,3-1.8,4.4-4.9,4.4c-3.2,0-4.5-1.5-4.5-4.1v-0.6H99.8z"/>
	<polygon class="st1" points="107.5,45.9 108.9,45.9 110.3,45.9 110.3,48.6 110.3,51.3 112,51.3 113.7,51.3 113.7,48.6 113.7,45.9 
		115.1,45.9 116.5,45.9 116.5,53 116.5,60.1 115.1,60.1 113.7,60.1 113.7,57 113.7,53.8 112,53.8 110.3,53.8 110.3,57 110.3,60.1 
		108.9,60.1 107.5,60.1 107.5,53 	"/>
	<polygon class="st1" points="126.3,45.9 126.3,47.1 126.3,48.2 123.8,48.2 121.3,48.2 121.3,49.9 121.3,51.6 123.6,51.6 126,51.6 
		126,52.8 126,53.9 123.6,53.9 121.3,53.9 121.3,55.9 121.3,57.8 123.9,57.8 126.5,57.8 126.5,58.9 126.5,60.1 122.5,60.1 
		118.4,60.1 118.4,53 118.4,45.9 122.4,45.9 	"/>
	<path class="st1" d="M127.8,45.9h2.6h2.6c1.2,0,2.1,0.3,2.8,0.9c0.6,0.6,1,1.5,1,2.8c0,1-0.2,1.7-0.6,2.3c-0.4,0.6-1,1-1.8,1.2v0v0
		c1,0.1,1.5,0.5,1.9,1.1c0.3,0.7,0.4,1.7,0.4,3.2c0,0.8,0,1.3,0.1,1.7c0.1,0.4,0.2,0.7,0.5,0.8v0.1v0.1h-1.6h-1.6
		c-0.2-0.2-0.2-0.4-0.3-0.7s-0.1-0.5-0.1-0.8l0-1.4l0-1.4c0-0.6-0.2-1-0.4-1.3c-0.3-0.3-0.7-0.5-1.3-0.5h-0.8h-0.8v3v3h-1.4h-1.4V53
		V45.9z M130.7,52.1h1.2c1.4,0,2.2-0.6,2.2-2.1c0-1.3-0.7-2-2-2h-1.4V52.1z"/>
	<polygon class="st1" points="138.7,45.9 140.1,45.9 141.5,45.9 141.5,53 141.5,60.1 140.1,60.1 138.7,60.1 138.7,53 	"/>
	<polygon class="st1" points="151.4,45.9 151.4,47.1 151.4,48.2 148.8,48.2 146.3,48.2 146.3,49.9 146.3,51.6 148.7,51.6 
		151.1,51.6 151.1,52.8 151.1,53.9 148.7,53.9 146.3,53.9 146.3,55.9 146.3,57.8 148.9,57.8 151.6,57.8 151.6,58.9 151.6,60.1 
		147.5,60.1 143.4,60.1 143.4,53 143.4,45.9 147.4,45.9 	"/>
	<path class="st1" d="M155.2,55.7v0.4c0,1.3,0.4,2.2,1.9,2.2c0.9,0,1.7-0.6,1.7-1.8c0-1.3-0.6-1.8-2.5-2.4c-2.5-0.9-3.7-2-3.7-4.3
		c0-2.8,1.7-4.2,4.4-4.2c2.5,0,4.4,1.1,4.4,3.8v0.4h-2.7c0-1.4-0.4-2.1-1.6-2.1c-1.3,0-1.6,0.8-1.6,1.7c0,0.9,0.3,1.4,1.5,1.9l2.2,1
		c2.1,1,2.7,2,2.7,3.8c0,3-1.8,4.4-4.9,4.4c-3.2,0-4.5-1.5-4.5-4.1v-0.6H155.2z"/>
</g>
</svg>
